<?xml version="1.0" encoding="UTF-8"?>
<svg id="Capa_1" data-name="Capa 1" xmlns="http://www.w3.org/2000/svg" viewBox="0 0 59.37 54.32">
  <defs>
    <style>
      .cls-1 {
        fill: #aa5496;
      }

      .cls-1, .cls-2, .cls-3, .cls-4, .cls-5, .cls-6, .cls-7, .cls-8, .cls-9, .cls-10, .cls-11, .cls-12, .cls-13 {
        stroke-width: 0px;
      }

      .cls-2 {
        fill: #1b838c;
      }

      .cls-3 {
        fill: #0c0b0d;
      }

      .cls-4 {
        fill: #2b494f;
      }

      .cls-5 {
        fill: #5f2350;
      }

      .cls-6 {
        fill: #34427e;
      }

      .cls-7 {
        fill: #8ebcc6;
      }

      .cls-8 {
        fill: #4f4690;
      }

      .cls-9 {
        fill: #702b1b;
      }

      .cls-10 {
        fill: #dacf9b;
      }

      .cls-11 {
        fill: #7bb6b2;
      }

      .cls-12 {
        fill: #dfd3b7;
      }

      .cls-13 {
        fill: #e1e0ba;
      }
    </style>
  </defs>
  <g>
    <path class="cls-1" d="M33.96,23.03c1.09-.7,2.65-1.79,3.27-2.95.48-.89,1.27-2.97-.28-3.17-2.41-.31-5.14,2.25-6.65,3.93.09-.53.13-1.08.17-1.62.13-1.6.14-2.74-.47-4.26-.48-1.21-1.2-2.3-2.37-.92-1.45,1.72-1.63,5.43-.52,7.36-.02.03-.03.06-.04.09-.76-.89-1.7-2.23-2.56-2.97-1.91-1.65-6.07-3-4.76.72.66,1.85,2.5,3.17,3.92,4.39-.24-.03-.49-.06-.73-.09-1.76-.21-3.47-.41-5.23.04-1.3.34-3.48,1.56-1.46,2.8,1.57.96,5.39.86,7.25.79h.13c-.38.18-.72.41-1.12.57-2.17.83-4.56,1.03-6.8.44-1.02-.43-2.69-.98-2.97-2.27-.22-1.03.27-1.8,1.05-2.4,1.82-1.4,4.78-1.41,6.91-.92.19.04.43.17.73.22,0,0,0,.09.13.02-.05-.06-.08-.06-.09-.07-.08-.07-.55-.28-.73-.39-.46-.27-.95-.57-1.36-.92-1.64-1.4-3.86-4.94-1.89-6.42,1.29-.97,3.55-.21,4.84.44,1.35.68,2.56,1.71,3.36,3.01.03.11.16,0,.04-.04-.35-1.57-.48-3.26-.13-4.85.15-.69.66-1.85,1.08-2.42,1.37-1.88,3.13-1.45,4.18.46.01.03.03.06.04.09,1.17,2.25.95,5.09.17,7.43-.16.48-.28.61.04.04.83-1.44,1.15-1.6,1.98-2.58.56-.46,1.13-.88,1.77-1.22,1.23-.66,3.25-1.41,4.54-.61.27.17.48.5.71.7,1.15,2.72-1.67,6.19-4,7.3"/>
    <path class="cls-8" d="M30.47,19.23l-.54,2.14c-.46-3.58-2.6-3.93-2.73-.04-.02.02-.08.08-.09.09-1.11-1.93-.93-5.64.52-7.36,1.16-1.38,1.88-.29,2.37.92.61,1.52.6,2.66.47,4.26Z"/>
    <path class="cls-8" d="M33.96,23.03c.37-.44.79-.87.97-1.44-.56.51-1.19.94-1.79,1.4.37-.78,1.18-2.21.95-3.08-.17-.66-2.02.08-2.78.72-.57.48-.6.96-1.18.76,0-.16.16-.48.17-.55,1.51-1.68,4.24-4.24,6.65-3.93,1.55.2.76,2.28.28,3.17-.63,1.15-2.19,2.25-3.27,2.95Z"/>
    <path class="cls-8" d="M27.07,21.5s0,.06,0,.09c-.51-.62-3.89-2.83-4.13-1.29-.18,1.13.58,2.61,1.42,3.36,0,.1-.46,0-.69-.02-1.42-1.23-3.26-2.54-3.92-4.39-1.32-3.72,2.85-2.37,4.76-.72.86.74,1.8,2.08,2.56,2.97Z"/>
    <path class="cls-8" d="M22.94,23.56c-.96.1-3.11.4-3.81,1.05-.98.91,1.75,2.28,3.32,2.45.42.05.91-.11,1.05.13-1.86.07-5.68.18-7.25-.79-2.02-1.23.17-2.46,1.46-2.8,1.76-.46,3.47-.25,5.23-.04Z"/>
    <path class="cls-5" d="M31.12,19.19c-.33.56-.2.43-.04-.04l.04.04Z"/>
    <path class="cls-5" d="M21.43,22.82l.04-.04s.04,0,.09.07c-.13.07-.12-.02-.13-.02Z"/>
    <path class="cls-6" d="M25.7,18.49l.04-.04c.11.05-.02.15-.04.04Z"/>
    <g>
      <path class="cls-1" d="M30.6,31.33c.44,1.82,1.13,2.92.99,5.35-.11,1.87-1.25,5.54-3.62,5.26-.24-.16-.71-.21-1.29-.9-.3-.36-.79-1.24-.95-1.68-.23-.64-.39-1.51-.43-2.18-.1-1.63.2-3.15.9-4.63.06.86.08,1.72.22,2.58.14.87.36,1.69.95,2.38,1.02,1.2,1.72.62,2.37-.52.85-1.49.99-3.5.82-5.18-.02-.23-.11-.46-.09-.7h.04s.07.16.09.22Z"/>
      <path class="cls-8" d="M28.88,34.17c.11.07.2.17.32.22.7-.7,1.11-1.66,1.23-2.64l.13.07c.17,1.68.03,3.68-.82,5.18-.65,1.15-1.35,1.72-2.37.52-.59-.69-.81-1.51-.95-2.38.06-1.17.62-2.47.82-3.49.29.96.75,1.99,1.64,2.53Z"/>
    </g>
    <path class="cls-8" d="M27.25,31.64c-.2,1.03-.75,2.33-.82,3.49-.14-.86-.15-1.72-.22-2.58.31-.65.77-1.22,1.12-1.83-.01.28-.03.65-.09.92Z"/>
    <path class="cls-8" d="M30.47,31.12c-.02.24.06.47.09.7l-.13-.07c-.11.99-.53,1.94-1.23,2.64-.12-.05-.21-.15-.32-.22.79-.86,1.48-1.95,1.42-3.17.17-.09.09.07.17.11Z"/>
    <g>
      <path class="cls-1" d="M41.19,22.51c.58.12,1.43.4,1.94.7.81.47,1.37,1.11,1.55,2.05-.23,2.61-4.12,3.32-6.18,3.19-1.21-.07-2.72-.7-3.25-.74-.82-.42-2.16-.48-1.16-.52,1.61-.07,3.19.19,5.19-.26,1.07-.24,3.53-1.06,1.89-2.45-1.38-1.17-4.17-1.28-5.88-1.05,2.03-.71,3.26-1.45,5.9-.92Z"/>
      <path class="cls-8" d="M34.09,27.18v-.09c.06,0,.99-.22,1.14-.26.22-.06,1.03-.34,1.25-.44,3.29-1.44.14-2.55-2.26-2.66.3-.1.61-.16.9-.26.05-.02.12-.03.17-.04,1.71-.23,4.5-.12,5.88,1.05,1.64,1.39-.83,2.2-1.89,2.45-1.99.45-3.58.19-5.19.26Z"/>
    </g>
    <g>
      <path class="cls-1" d="M21.17,29.15s-.13.07-.3.22c-2.96,2.66-3.11,5.69.8,4.28,1.26-.45,2.21-1.4,3.29-2.14l1.29-.9c-.68,3.18-5.92,7.03-8.96,5.88-2.71-1.03-.69-5.43,1.55-7.03.75-.54,2.72-1.33,3.66-1.66.09-.03.19-.09.28-.13.12.04-1.5,1.38-1.61,1.49Z"/>
      <g>
        <path class="cls-8" d="M23.5,28.45c-.27.57-1.22,2.64-.19,2.84,1.05.21,2.32-.77,2.45-.79,0,0,.04.06.11.04-.15.14-.6.69-.9.96-1.08.75-2.04,1.69-3.29,2.14-3.9,1.4-3.76-1.62-.8-4.28.93.07,1.8-.71,2.63-.92Z"/>
        <path class="cls-8" d="M23.63,28.15c-.01.11-.08.21-.13.31-.83.2-1.7.99-2.63.92.17-.15.29-.21.3-.22l2.45-1Z"/>
      </g>
    </g>
    <g>
      <path class="cls-1" d="M34.99,28.15c1.7.5,3.55,1.46,4.69,2.86,1.01,1.24,2.07,3.57.86,4.98-.86,1.01-2.62.75-3.75.42-1.28-.38-3.06-1.48-3.96-2.49-.5-.56-1.46-2.11-1.77-2.8-.12-.27-.37-.67,0-.48.12.15,1.81,1.66,2.05,1.83,1.09.84,3.34,2.04,4.69,1.44,1.15-.51-.21-3.26-1.12-4.11-.41-.38-.93-.66-1.4-.96-.3-.19-.62-.46-.9-.61l-.39-.35c.34.09.65.16.99.26Z"/>
      <path class="cls-8" d="M35.3,28.84c.47.3.99.58,1.4.96.91.84,2.27,3.6,1.12,4.11-1.35.59-3.6-.61-4.69-1.44-.23-.18-1.93-1.69-2.05-1.83-.1-.12-.18-.28-.3-.39.45.18,1.5,1.3,2.95,1.14,1.57-.18.24-2.28-.06-3.1l1.64.57Z"/>
      <path class="cls-9" d="M34.39,28.23c.29.15.61.42.9.61l-1.64-.57-.22-.13s.3-.15.41-.17c.28.23.51.25.54.26Z"/>
    </g>
  </g>
  <g>
    <g id="Background">
      <path class="cls-4" d="M23.54,24.55c-.52.55-.39.77.21,1.43,1.49,1.66,4.04,2.57,6.23,2.17,1.37-.25,3.12-1.39,4.02-2.45.04.29.67.47.59.84-.09.43-2.15,1.67-2.87,1.96-2.16.86-5.07.62-6.9-.91-.54-.45-1.57-2-1.64-2.25-.08-.3.04-.67.35-.78Z"/>
    </g>
    <g>
      <path class="cls-10" d="M34,25.7c-.9,1.06-2.65,2.19-4.02,2.45-2.19.41-4.74-.5-6.23-2.17-.59-.66-.72-.88-.21-1.43.55-.58,2.11-1.55,2.87-1.83,2.9-1.07,6.03.15,7.97,2.43.02.1-.3.45-.38.55Z"/>
      <g>
        <path class="cls-12" d="M23.92,25.02c.07.05.17.08.18.09,1.41.87,2.62,1.3,4.3,1.33,1.99.03,3.13-.54,4.86-1.27.17-.07.35-.13.5-.24.01.01.23.16.29.22.03.14-1.29.73-1.49.81-2.83,1.14-6.26,1.24-8.8-.6.11-.16.14-.32.15-.34Z"/>
        <g>
          <path class="cls-11" d="M33.77,24.93c-.15.11-.33.17-.5.24-1.01-.54-2.09-.97-3.21-1.21-.46-.1-.95-.27-1.41-.12-.21-.05-.62-.05-.83,0-.8.07-1.99.48-2.78.83-.31.14-.61.32-.93.44,0,0-.1-.04-.18-.09.44-.84,2.54-2.03,3.46-2.3,2.75-.8,4.47.44,6.38,2.21Z"/>
          <path class="cls-7" d="M27.81,23.84c-.57.13-.44,1.25-.27,1.66.16.39.5.71.85.93-1.69-.02-2.89-.45-4.3-1.33.32-.12.61-.31.93-.44.79-.34,1.98-.76,2.78-.83Z"/>
          <g>
            <path class="cls-2" d="M28.64,23.84c-1.08.36-.33,2.38.93,2.03.52-.14.54-.71.55-1.12,0-.05,0-.1,0-.15,0-.22,0-.43-.06-.65,1.12.24,2.2.67,3.21,1.21-1.74.72-2.87,1.3-4.86,1.27-.36-.22-.69-.53-.85-.93-.17-.42-.3-1.54.27-1.66.2-.05.61-.05.83,0Z"/>
            <g>
              <path class="cls-3" d="M30.05,23.96c.05.22.05.42.06.65-.86-.71-.6,1.01,0,.15,0,.41-.03.98-.55,1.12-1.26.35-2-1.68-.93-2.03.47-.15.96.02,1.41.12Z"/>
              <path class="cls-13" d="M30.11,24.61s0,.1,0,.15c-.6.86-.86-.86,0-.15Z"/>
            </g>
          </g>
        </g>
      </g>
    </g>
  </g>
</svg>