<?xml version="1.0" encoding="UTF-8"?>
<svg id="Capa_1" data-name="Capa 1" xmlns="http://www.w3.org/2000/svg" viewBox="0 0 23 23">
  <defs>
    <style>
      .cls-1 {
        fill: #957cb0;
      }

      .cls-1, .cls-2 {
        stroke: #957cb0;
        stroke-miterlimit: 10;
      }

      .cls-2 {
        fill: none;
        stroke-width: .25px;
      }
    </style>
  </defs>
  <path class="cls-2" d="M2.57,10.64s-.5-6.1,2.34-4.84c0,0,3.11,1.89,3.37,2.57"/>
  <path class="cls-2" d="M15.51,8.13s3.98-3.6,4.81-2.17c0,0,.74.96.8,4.84"/>
  <path class="cls-2" d="M4.14,6.44c.2.02.37.12.54.22.34.2.68.4,1.02.6.63.37,1.29.76,1.67,1.39"/>
  <path class="cls-2" d="M16.45,8.49c.15-.14.31-.27.47-.4.77-.62,1.57-1.26,2.5-1.61"/>
  <path class="cls-2" d="M14.57,14.64c1.67-.57,3.46-.79,5.23-.65"/>
  <path class="cls-2" d="M14.72,15.78c.88-.05,1.77-.1,2.64,0s1.75.36,2.47.87"/>
  <path class="cls-2" d="M14.81,16.79c.87.09,1.6.65,2.26,1.21.3.26.62.56.69.95"/>
  <path class="cls-2" d="M9.04,14.57c-1.3-.48-2.69-.74-4.08-.77-.51-.01-1.04.02-1.51.24"/>
  <path class="cls-2" d="M8.94,15.71c-1.76-.52-3.76-.21-5.28.82"/>
  <path class="cls-2" d="M8.9,16.73c-.41-.02-.81.13-1.2.28-.38.15-.77.3-1.09.55-.18.14-.33.3-.48.46-.32.33-.65.71-.68,1.16"/>
  <path class="cls-1" d="M11.83,15c.06-.15.16-.24.31-.28.25-.06.51.11.53.37.01.13-.02.26-.08.37-.07.12-.15.23-.25.33-.12.13-.26.24-.4.34-.04.03-.07.06-.11.09-.04-.03-.08-.07-.13-.1-.13-.1-.26-.2-.38-.32-.11-.12-.22-.24-.29-.4-.04-.1-.07-.21-.06-.32.02-.19.18-.35.37-.38.21-.03.41.1.47.29,0,0,0,0,0,0Z"/>
</svg>