<?xml version="1.0" encoding="UTF-8"?>
<svg id="Capa_1" data-name="Capa 1" xmlns="http://www.w3.org/2000/svg" viewBox="0 0 23 23">
  <defs>
    <style>
      .cls-1 {
        stroke-width: 0px;
      }
    </style>
  </defs>
  <path class="cls-1" d="M8.38,3.97c2.26,0,4.52,0,6.78,0,.03,0,.06.02.09.03.35.09.72.13,1.05.26,1.55.63,2.43,1.78,2.67,3.44.02.17.03.34.03.51,0,2,0,4,0,6,0,.88-.23,1.69-.74,2.4-.86,1.22-2.05,1.83-3.55,1.83-1.96,0-3.92,0-5.87,0-.87,0-1.67-.21-2.39-.68-.87-.57-1.46-1.36-1.75-2.36-.07-.26-.11-.53-.17-.8,0-2.26,0-4.52,0-6.78,0-.03.02-.06.03-.09.07-.66.29-1.27.65-1.83.57-.87,1.36-1.47,2.37-1.75.26-.07.53-.11.8-.17ZM11.76,17.3c.98,0,1.97.01,2.95,0,.32,0,.64-.05.95-.13,1.31-.36,2.21-1.58,2.21-3,0-1.98,0-3.95,0-5.93,0-.31-.05-.62-.13-.92-.35-1.32-1.58-2.22-3-2.22-1.98,0-3.95,0-5.93,0-.23,0-.46.02-.69.07-1.46.32-2.44,1.54-2.45,3.04,0,1.99,0,3.98,0,5.97,0,1.06.44,1.92,1.3,2.55.55.4,1.17.57,1.84.57.98,0,1.97,0,2.95,0Z"/>
  <path class="cls-1" d="M7.87,11.2c0-2.15,1.75-3.89,3.9-3.89,2.15,0,3.9,1.76,3.9,3.91,0,2.15-1.76,3.89-3.9,3.89-2.15,0-3.89-1.75-3.89-3.9ZM14.54,11.2c0-1.52-1.25-2.77-2.77-2.77-1.52,0-2.77,1.25-2.77,2.77,0,1.52,1.25,2.77,2.77,2.77,1.52,0,2.77-1.25,2.77-2.77Z"/>
  <path class="cls-1" d="M15.73,7.81c-.31,0-.56-.25-.56-.56,0-.32.25-.57.57-.57.31,0,.56.25.56.57,0,.31-.25.56-.56.56Z"/>
</svg>