<?xml version="1.0" encoding="UTF-8"?>
<svg id="Capa_1" data-name="Capa 1" xmlns="http://www.w3.org/2000/svg" viewBox="0 0 23 23">
  <defs>
    <style>
      .cls-1 {
        stroke-width: 0px;
      }
    </style>
  </defs>
  <path class="cls-1" d="M16.74,19.74H6.04c-.28-.12-.57-.2-.83-.35-.54-.32-.79-.85-.95-1.43,0-3.59,0-7.18,0-10.76.12-.28.2-.57.35-.83.32-.54.85-.79,1.43-.95,3.57,0,7.13,0,10.7,0,.31.13.64.22.92.39.54.32.79.86.92,1.46v10.64c-.13.31-.22.64-.39.93-.32.54-.87.77-1.46.92ZM10.44,12.57s.05-.06.08-.09c.45-.49.61-1.07.39-1.7-.22-.64-.69-1.06-1.37-1.12-.65-.06-1.31-.03-1.97-.04-.25,0-.5,0-.75,0v5.91c.78,0,1.54,0,2.3,0,.11,0,.21,0,.32-.01.48-.06.89-.25,1.2-.64.55-.72.48-1.52-.2-2.3ZM16,13.84c.17-1.21-.49-2.21-1.61-2.48-1.02-.25-2.1.37-2.44,1.39-.35,1.04.14,2.14,1.14,2.59.97.43,2.12.06,2.65-.88-.23-.13-.46-.27-.69-.4-.47.53-.9.71-1.41.58-.4-.11-.71-.34-.85-.79h3.22ZM12.25,9.63c0,.2.01.38,0,.56-.02.24.06.31.3.31.81-.01,1.61,0,2.42,0,.21,0,.42,0,.64,0v-.86h-3.35Z"/>
  <path class="cls-1" d="M7.65,12.16v-1.64c.64,0,1.27-.03,1.9.01.37.03.63.47.6.85-.04.42-.35.75-.79.77-.56.02-1.12,0-1.71,0Z"/>
  <path class="cls-1" d="M7.65,14.66v-1.65c.6,0,1.19-.03,1.78.01.46.03.76.45.72.89-.04.46-.37.75-.85.76-.54,0-1.08,0-1.64,0Z"/>
  <path class="cls-1" d="M15.09,12.98h-2.28c.09-.42.53-.77,1.01-.81.55-.05,1.04.25,1.27.81Z"/>
</svg>