<?xml version="1.0" encoding="UTF-8"?>
<svg id="Capa_1" data-name="Capa 1" xmlns="http://www.w3.org/2000/svg" viewBox="0 0 23 23">
  <defs>
    <style>
      .cls-1 {
        stroke-width: 0px;
      }
    </style>
  </defs>
  <path class="cls-1" d="M11.48,4.15c1.24,0,2.48,0,3.71,0,.44,0,.88.01,1.31.1,1.25.25,2.09,1.15,2.28,2.39.05.35.06.71.06,1.07,0,2.5,0,5,0,7.51,0,.53,0,1.05-.16,1.56-.34,1.13-1.35,1.94-2.53,2.02-.45.03-.9.04-1.35.04-2.31,0-4.62,0-6.93,0-.49,0-.99,0-1.47-.12-1.21-.28-2.1-1.3-2.19-2.53-.03-.39-.05-.78-.05-1.17,0-2.46,0-4.92,0-7.37,0-.53.01-1.07.21-1.58.44-1.13,1.27-1.78,2.47-1.87,1.02-.07,2.06-.05,3.08-.06.52,0,1.04,0,1.55,0h0ZM15.91,15.95s0-.09,0-.12c0-1.2,0-2.39,0-3.59,0-.24-.05-.5-.12-.73-.11-.36-.27-.7-.56-.96-1.09-.97-2.68-.67-3.44.29-.01.02-.03.03-.07.06v-.82h-1.66v5.87h1.77c0-.05,0-.1,0-.15,0-.99,0-1.98,0-2.96,0-.26.07-.51.21-.73.27-.44.79-.55,1.23-.48.46.08.74.36.83.82.02.12.03.24.03.36,0,1,0,1.99,0,2.99,0,.05,0,.1,0,.15h1.77ZM7.23,10.08v5.87h1.8v-5.87h-1.8ZM8.13,9.19c.58,0,1.04-.46,1.05-1.04,0-.57-.46-1.04-1.01-1.05-.6,0-1.08.45-1.08,1.04,0,.57.47,1.04,1.05,1.04Z"/>
</svg>