<?xml version="1.0" encoding="UTF-8"?>
<svg id="Capa_1" data-name="Capa 1" xmlns="http://www.w3.org/2000/svg" viewBox="0 0 23 23">
  <defs>
    <style>
      .cls-1 {
        stroke-width: 0px;
      }
    </style>
  </defs>
  <path class="cls-1" d="M17.52,18.74H6.78c-.28-.12-.57-.21-.83-.36-.55-.32-.79-.85-.96-1.43,0-3.6,0-7.2,0-10.81.12-.28.21-.57.36-.83.32-.55.85-.79,1.43-.96,3.58,0,7.16,0,10.74,0,.31.13.64.22.93.39.54.33.79.86.93,1.46v10.68c-.13.31-.22.64-.39.93-.33.54-.87.78-1.46.93ZM11.2,11.55s.05-.06.08-.09c.45-.5.61-1.07.39-1.71-.23-.65-.69-1.06-1.38-1.12-.65-.06-1.32-.03-1.98-.04-.25,0-.5,0-.75,0v5.93c.78,0,1.55,0,2.31,0,.11,0,.21,0,.32-.01.48-.06.9-.25,1.2-.64.55-.72.49-1.52-.2-2.31ZM16.79,12.82c.17-1.21-.49-2.22-1.62-2.49-1.02-.25-2.11.37-2.45,1.39-.35,1.04.14,2.15,1.14,2.6.97.44,2.13.06,2.66-.89-.23-.13-.47-.27-.69-.4-.47.53-.91.72-1.42.58-.4-.11-.72-.34-.86-.79h3.23ZM13.02,8.6c0,.21.01.38,0,.56-.02.24.06.31.3.31.81-.01,1.62,0,2.43,0,.21,0,.42,0,.64,0v-.86h-3.37Z"/>
  <path class="cls-1" d="M8.4,11.13v-1.65c.64,0,1.28-.03,1.91.01.37.03.64.47.6.86-.04.42-.35.75-.79.77-.56.02-1.12,0-1.72,0Z"/>
  <path class="cls-1" d="M8.4,13.64v-1.66c.6,0,1.2-.03,1.78.01.46.03.76.46.72.89-.04.46-.37.75-.86.76-.54,0-1.08,0-1.65,0Z"/>
  <path class="cls-1" d="M15.87,11.95h-2.29c.09-.43.53-.77,1.02-.82.55-.05,1.04.25,1.27.82Z"/>
</svg>