<?xml version="1.0" encoding="UTF-8"?>
<svg id="Capa_1" data-name="Capa 1" xmlns="http://www.w3.org/2000/svg" viewBox="0 0 23 23">
  <defs>
    <style>
      .cls-1 {
        stroke-width: 0px;
      }
    </style>
  </defs>
  <path class="cls-1" d="M17.56,18.73H7.14c-.27-.11-.56-.2-.81-.35-.53-.31-.77-.83-.93-1.39,0-3.5,0-6.99,0-10.49.11-.27.2-.56.35-.81.31-.53.83-.77,1.39-.93,3.47,0,6.95,0,10.42,0,.3.12.62.21.9.38.53.32.77.84.9,1.42v10.36c-.12.3-.21.62-.38.9-.32.53-.85.75-1.42.9ZM11.43,11.75s.05-.06.08-.09c.44-.48.59-1.04.38-1.66-.22-.63-.67-1.03-1.34-1.09-.64-.06-1.28-.03-1.92-.04-.24,0-.49,0-.73,0v5.76c.76,0,1.5,0,2.24,0,.1,0,.21,0,.31-.01.47-.06.87-.24,1.17-.63.54-.7.47-1.48-.19-2.24ZM16.85,12.99c.17-1.18-.48-2.15-1.57-2.42-.99-.24-2.05.36-2.38,1.35-.34,1.01.14,2.09,1.11,2.52.94.42,2.07.06,2.58-.86-.23-.13-.45-.26-.67-.39-.46.52-.88.7-1.37.56-.39-.11-.7-.33-.83-.77h3.13ZM13.19,8.89c0,.2.01.37,0,.54-.02.23.06.3.3.3.78-.01,1.57,0,2.35,0,.2,0,.41,0,.62,0v-.84h-3.27Z"/>
  <path class="cls-1" d="M8.71,11.35v-1.6c.62,0,1.24-.03,1.85.01.36.03.62.45.58.83-.04.41-.34.73-.77.75-.54.02-1.09,0-1.67,0Z"/>
  <path class="cls-1" d="M8.71,13.78v-1.61c.59,0,1.16-.03,1.73.01.45.03.74.44.7.86-.04.44-.36.73-.83.74-.52,0-1.05,0-1.6,0Z"/>
  <path class="cls-1" d="M15.96,12.15h-2.22c.09-.41.51-.75.99-.79.53-.05,1.01.25,1.23.79Z"/>
</svg>