<?xml version="1.0" encoding="UTF-8"?>
<svg id="Capa_1" data-name="Capa 1" xmlns="http://www.w3.org/2000/svg" viewBox="0 0 23 23">
  <defs>
    <style>
      .cls-1 {
        stroke-width: 0px;
      }
    </style>
  </defs>
  <path class="cls-1" d="M18.24,20.58H4.68c-.35-.15-.73-.26-1.05-.45-.69-.4-1-1.08-1.21-1.81,0-4.55,0-9.09,0-13.64.15-.35.26-.73.45-1.05.4-.69,1.08-1,1.81-1.21,4.52,0,9.04,0,13.56,0,.39.16.81.28,1.17.49.69.41,1,1.09,1.17,1.85v13.48c-.16.39-.28.81-.49,1.17-.41.69-1.1.98-1.85,1.17ZM10.26,11.5s.07-.08.1-.12c.57-.63.77-1.35.49-2.16-.29-.81-.87-1.34-1.74-1.41-.83-.07-1.66-.04-2.49-.05-.32,0-.63,0-.95,0v7.49c.99,0,1.95,0,2.92,0,.13,0,.27,0,.4-.01.61-.08,1.13-.32,1.52-.81.7-.91.61-1.92-.25-2.92ZM17.31,13.1c.22-1.53-.62-2.8-2.04-3.14-1.29-.31-2.66.47-3.09,1.76-.44,1.31.18,2.71,1.44,3.28,1.23.55,2.69.07,3.36-1.12-.29-.17-.59-.34-.88-.5-.6.67-1.14.9-1.79.73-.51-.14-.9-.43-1.08-1h4.08ZM12.56,7.77c0,.26.02.49,0,.71-.03.3.08.39.38.39,1.02-.02,2.04,0,3.06,0,.26,0,.53,0,.81,0v-1.09h-4.25Z"/>
  <path class="cls-1" d="M6.72,10.97v-2.08c.81,0,1.61-.04,2.41.02.47.03.8.59.76,1.08-.05.53-.44.95-1,.98-.71.03-1.42,0-2.17,0Z"/>
  <path class="cls-1" d="M6.73,14.14v-2.1c.76,0,1.51-.04,2.25.01.58.04.96.58.91,1.12-.05.58-.46.95-1.08.96-.68,0-1.36,0-2.08,0Z"/>
  <path class="cls-1" d="M16.15,12.01h-2.88c.12-.54.67-.98,1.28-1.03.69-.06,1.31.32,1.6,1.03Z"/>
</svg>