<?xml version="1.0" encoding="UTF-8"?>
<svg id="Capa_1" data-name="Capa 1" xmlns="http://www.w3.org/2000/svg" viewBox="0 0 32 32">
  <defs>
    <style>
      .cls-1 {
        fill: #050006;
        stroke: #050006;
      }

      .cls-1, .cls-2, .cls-3 {
        stroke-miterlimit: 10;
        stroke-width: .25px;
      }

      .cls-2 {
        fill: none;
      }

      .cls-2, .cls-3 {
        stroke: #957cb0;
      }

      .cls-4 {
        stroke-width: 0px;
      }

      .cls-4, .cls-3 {
        fill: #957cb0;
      }
    </style>
  </defs>
  <path class="cls-2" d="M4.63,14.69s13.31-13.68,23.15,3.09c0,0-12.65,13.5-23.15-3.09Z"/>
  <path class="cls-4" d="M4.13,9.14c1.12.9,1.93,2.14,2.32,3.52.06.21.78.01.72-.19-.39-1.41-1.23-2.68-2.37-3.59-.12-.1-.35-.03-.47.02-.06.02-.32.15-.2.25h0Z"/>
  <path class="cls-4" d="M10.4,5.33c.17,1.61.45,3.2.85,4.76.05.21.78.02.72-.19-.4-1.57-.68-3.16-.85-4.76-.02-.19-.75-.04-.72.19h0Z"/>
  <path class="cls-4" d="M17.61,3.71c-.89,1.75-1.35,3.68-1.34,5.64,0,.09.72,0,.72-.19,0-1.94.46-3.85,1.33-5.58.05-.11-.25-.06-.29-.05-.11.02-.37.07-.43.19h0Z"/>
  <path class="cls-4" d="M22.58,11.42c1.09-1.48,2.02-3.07,2.79-4.74.05-.11-.25-.06-.29-.05-.11.02-.37.07-.43.19-.77,1.67-1.7,3.26-2.79,4.74-.07.1.26.06.29.05.13-.02.34-.07.43-.19h0Z"/>
  <path class="cls-4" d="M27.03,15.66c1.16-.91,2.2-1.97,3.09-3.15.07-.1-.26-.06-.29-.05-.14.03-.34.07-.43.19-.87,1.16-1.89,2.19-3.03,3.08-.13.1.12.11.17.1.16-.02.35-.07.49-.17h0Z"/>
  <path class="cls-4" d="M22.87,21.58l1.91,3.17c.13.22.84-.02.67-.29-.64-1.06-1.27-2.11-1.91-3.17-.13-.22-.84.02-.67.29h0Z"/>
  <path class="cls-4" d="M18.49,23.12l.66,3.84c.06.34.78.15.72-.19l-.66-3.84c-.06-.34-.78-.15-.72.19h0Z"/>
  <path class="cls-4" d="M11.74,22.14c-.44,1.3-1.07,2.53-1.88,3.65-.07.1.26.05.28.05.13-.02.34-.07.43-.19.8-1.12,1.43-2.35,1.88-3.65.04-.11-.24-.06-.28-.05-.09.02-.39.07-.43.19h0Z"/>
  <path class="cls-4" d="M7.49,18.75c-.87,1.01-1.67,2.09-2.39,3.21-.07.11.26.08.29.07.14-.02.34-.07.42-.2.7-1.1,1.48-2.15,2.33-3.14.1-.12-.09-.13-.17-.12-.14.01-.38.06-.48.17h0Z"/>
  <circle class="cls-3" cx="16.21" cy="16.2" r="4.75"/>
  <circle class="cls-1" cx="16.21" cy="16.2" r="2.3"/>
</svg>