<?xml version="1.0" encoding="UTF-8"?>
<svg id="Capa_1" data-name="Capa 1" xmlns="http://www.w3.org/2000/svg" viewBox="0 0 53 50">
  <defs>
    <style>
      .cls-1 {
        fill: #957cb0;
      }

      .cls-1, .cls-2 {
        stroke-width: 0px;
      }

      .cls-2 {
        fill: #050006;
      }
    </style>
  </defs>
  <path class="cls-1" d="M10.35,22.51c5.23-5.31,13.79-8.87,20.91-5.41,3.26,1.59,5.84,4.28,7.89,7.21.32.46.64.94.94,1.42.04.07.61.79.61.72,0,.05-.15.12-.17.17-.15.32-.72.68-.98.9-3.02,2.63-6.73,4.75-10.71,5.42-8.08,1.35-14.35-4.33-18.45-10.68-.15-.24-.85.01-.67.3,3.74,5.8,9.25,11.13,16.58,11.06,4.61-.05,9.01-2.12,12.6-4.91.84-.65,1.67-1.34,2.4-2.11.07-.07.09-.15.04-.24-3.55-5.93-8.94-11.3-16.31-11.17-4.66.09-9.1,2.21-12.76,4.98-.87.66-1.74,1.36-2.51,2.15-.31.31.39.37.59.17Z"/>
  <path class="cls-1" d="M9.55,15.08c1.47,1.18,2.54,2.8,3.05,4.61.09.32.82.13.72-.19-.54-1.91-1.67-3.59-3.22-4.83-.24-.19-.88.15-.56.41h0Z"/>
  <path class="cls-1" d="M17.89,9.97c.22,2.13.6,4.24,1.13,6.32.08.29.8.1.72-.19-.53-2.08-.91-4.19-1.13-6.32-.03-.29-.76-.12-.72.19h0Z"/>
  <path class="cls-1" d="M27.51,7.81c-1.19,2.32-1.79,4.89-1.79,7.49,0,.19.72.06.72-.19,0-2.57.62-5.11,1.79-7.4.07-.14-.25-.13-.31-.13-.15.02-.34.08-.42.23h0Z"/>
  <path class="cls-1" d="M33.87,18.26c1.47-1.99,2.74-4.11,3.77-6.35.17-.36-.56-.34-.69-.07-1.01,2.19-2.25,4.28-3.69,6.23-.27.36.42.44.6.19h0Z"/>
  <path class="cls-1" d="M39.84,23.76c1.56-1.21,2.95-2.6,4.14-4.17.1-.13-.08-.14-.18-.14-.14,0-.39.06-.48.18-1.16,1.53-2.52,2.91-4.04,4.09-.11.09-.09.16.05.18.16.02.39-.04.51-.14h0Z"/>
  <path class="cls-1" d="M34.51,31.47l2.55,4.2c.13.22.82-.04.72-.19l-2.55-4.2c-.13-.22-.82.04-.72.19h0Z"/>
  <path class="cls-1" d="M28.7,33.57c.29,1.7.59,3.4.88,5.1.06.33.78.15.72-.19-.29-1.7-.59-3.4-.88-5.1-.06-.33-.78-.15-.72.19h0Z"/>
  <path class="cls-1" d="M19.67,32.26c-.59,1.71-1.42,3.32-2.48,4.79-.1.14.09.22.2.22.17.01.38-.06.48-.2,1.08-1.5,1.93-3.15,2.53-4.9.09-.26-.64-.16-.73.09h0Z"/>
  <path class="cls-1" d="M13.98,27.76c-1.15,1.33-2.21,2.74-3.16,4.21-.09.14.08.21.2.22.16,0,.39-.06.48-.2.95-1.48,2-2.89,3.16-4.21.12-.13-.1-.21-.2-.22-.18,0-.36.07-.48.2h0Z"/>
  <g>
    <ellipse class="cls-1" cx="25.53" cy="24.42" rx="6.34" ry="6.3"/>
    <path class="cls-1" d="M31.51,24.45c-.03,2.49-1.52,4.79-3.89,5.67s-5.15.04-6.73-1.95-1.76-4.66-.54-6.8,3.86-3.41,6.36-2.87c2.78.61,4.77,3.12,4.81,5.95,0,.35.73.23.73-.07-.04-2.76-1.76-5.21-4.38-6.13s-5.65-.11-7.45,1.98-2.1,5.18-.66,7.56,4.3,3.55,7.01,3.04c3.1-.59,5.44-3.28,5.48-6.45,0-.35-.73-.23-.73.07Z"/>
  </g>
  <g>
    <ellipse class="cls-2" cx="25.53" cy="24.42" rx="3.07" ry="3.05"/>
    <path class="cls-2" d="M28.24,24.46c-.02,1.13-.66,2.23-1.75,2.63s-2.33-.04-3.04-.93-.83-2.2-.26-3.21,1.67-1.53,2.79-1.29c1.3.28,2.24,1.47,2.25,2.8,0,.34.73.2.73-.07-.02-1.39-.88-2.6-2.2-3.06s-2.95-.04-3.87,1.03-1.06,2.57-.34,3.77,2.2,1.76,3.57,1.5c1.57-.3,2.82-1.63,2.84-3.25,0-.34-.72-.2-.73.07Z"/>
  </g>
</svg>