<?xml version="1.0" encoding="UTF-8"?>
<svg id="Capa_1" data-name="Capa 1" xmlns="http://www.w3.org/2000/svg" viewBox="0 0 595.28 841.89">
  <defs>
    <style>
      .cls-1 {
        fill: #050006;
        stroke: #050006;
      }

      .cls-1, .cls-2, .cls-3 {
        stroke-miterlimit: 10;
      }

      .cls-2 {
        fill: none;
        stroke-width: 2px;
      }

      .cls-2, .cls-3 {
        stroke: #957cb0;
      }

      .cls-3, .cls-4 {
        fill: #957cb0;
      }

      .cls-4 {
        stroke-width: 0px;
      }
    </style>
  </defs>
  <path class="cls-2" d="M196.18,416.33s99.48-118.03,188.5,11.63c0,0-94.3,116.14-188.5-11.63Z"/>
  <path class="cls-4" d="M190.96,371.66c9.35,6.49,16.55,15.89,20.38,26.61.54,1.5,2.95.86,2.41-.66-4.06-11.37-11.61-21.22-21.53-28.1-1.32-.92-2.58,1.25-1.26,2.16h0Z"/>
  <path class="cls-4" d="M238.97,336.83c2.25,12.86,5.45,25.55,9.57,37.94.51,1.52,2.92.87,2.41-.66-4.13-12.39-7.33-25.07-9.57-37.94-.28-1.58-2.69-.91-2.41.66h0Z"/>
  <path class="cls-4" d="M296.26,318.89c-6.21,14.71-8.91,30.74-7.74,46.67.12,1.59,2.62,1.61,2.5,0-1.14-15.46,1.36-31.12,7.4-45.41.62-1.46-1.53-2.74-2.16-1.26h0Z"/>
  <path class="cls-4" d="M337.33,380.99c7.99-12.66,14.65-26.12,19.91-40.13.57-1.51-1.85-2.16-2.41-.66-5.18,13.81-11.78,27.06-19.66,39.54-.86,1.36,1.3,2.62,2.16,1.26h0Z"/>
  <path class="cls-4" d="M375.63,412.56c8.85-7.99,16.61-17.12,23.08-27.14.88-1.36-1.29-2.61-2.16-1.26-6.36,9.84-13.99,18.78-22.69,26.63-1.2,1.08.58,2.84,1.77,1.77h0Z"/>
  <path class="cls-4" d="M348.75,460.66c5.73,8.15,11.47,16.3,17.2,24.45.92,1.31,3.09.06,2.16-1.26-5.73-8.15-11.47-16.3-17.2-24.45-.92-1.31-3.09-.06-2.16,1.26h0Z"/>
  <path class="cls-4" d="M314.43,475.65l7.55,30.61c.38,1.56,2.8.9,2.41-.66-2.52-10.2-5.03-20.4-7.55-30.61-.38-1.56-2.8-.9-2.41.66h0Z"/>
  <path class="cls-4" d="M259.4,471.21c-2.79,10.67-7.14,20.85-12.91,30.25-.84,1.37,1.32,2.63,2.16,1.26,5.87-9.57,10.32-19.98,13.16-30.84.41-1.56-2-2.22-2.41-.66h0Z"/>
  <path class="cls-4" d="M223.12,446.37c-6.38,8.57-12.13,17.58-17.22,26.97-.77,1.41,1.39,2.68,2.16,1.26,5.09-9.39,10.84-18.4,17.22-26.97.96-1.29-1.21-2.54-2.16-1.26h0Z"/>
  <circle class="cls-3" cx="290.41" cy="421.82" r="38.37"/>
  <circle class="cls-1" cx="290.41" cy="421.82" r="18.59"/>
</svg>